<svg width="204" height="207" viewBox="0 0 204 207" fill="none" xmlns="http://www.w3.org/2000/svg">
<g filter="url(#filter0_dif_1_26)">
<path d="M180 176V98.0119C180 45.3572 139.504 2.84895 89.9092 4.0238C43.1139 5.19866 4.91782 46.1048 4.01791 96.0894C3.51796 122.791 13.517 147.035 29.8153 164.444C45.7137 181.426 92.7025 192 117 192H175.001C133.187 143.5 180 178.884 180 176Z" fill="url(#paint0_linear_1_26)" fill-opacity="0.62"/>
</g>
<g clip-path="url(#clip0_1_26)" filter="url(#filter1_bd_1_26)">
<path d="M181.114 193.993V116.426C181.114 70.3529 146.693 33.1581 104.537 34.1861C64.7613 35.2141 32.2946 71.007 31.5297 114.744C31.1047 138.107 39.6039 159.321 53.4575 174.554C66.9711 189.413 83.8844 198.665 104.537 198.665H176.865C172.076 189.165 181.114 196.516 181.114 193.993Z" fill="url(#paint1_linear_1_26)" fill-opacity="0.97"/>
</g>
<defs>
<filter id="filter0_dif_1_26" x="0" y="0" width="208" height="212" filterUnits="userSpaceOnUse" color-interpolation-filters="sRGB">
<feFlood flood-opacity="0" result="BackgroundImageFix"/>
<feColorMatrix in="SourceAlpha" type="matrix" values="0 0 0 0 0 0 0 0 0 0 0 0 0 0 0 0 0 0 127 0" result="hardAlpha"/>
<feOffset dy="4"/>
<feGaussianBlur stdDeviation="2"/>
<feComposite in2="hardAlpha" operator="out"/>
<feColorMatrix type="matrix" values="0 0 0 0 0 0 0 0 0 0 0 0 0 0 0 0 0 0 0.25 0"/>
<feBlend mode="normal" in2="BackgroundImageFix" result="effect1_dropShadow_1_26"/>
<feBlend mode="normal" in="SourceGraphic" in2="effect1_dropShadow_1_26" result="shape"/>
<feColorMatrix in="SourceAlpha" type="matrix" values="0 0 0 0 0 0 0 0 0 0 0 0 0 0 0 0 0 0 127 0" result="hardAlpha"/>
<feOffset dy="4"/>
<feGaussianBlur stdDeviation="2"/>
<feComposite in2="hardAlpha" operator="arithmetic" k2="-1" k3="1"/>
<feColorMatrix type="matrix" values="0 0 0 0 0 0 0 0 0 0 0 0 0 0 0 0 0 0 0.25 0"/>
<feBlend mode="normal" in2="shape" result="effect2_innerShadow_1_26"/>
<feGaussianBlur stdDeviation="2" result="effect3_foregroundBlur_1_26"/>
</filter>
<filter id="filter1_bd_1_26" x="30" y="20" width="178" height="187" filterUnits="userSpaceOnUse" color-interpolation-filters="sRGB">
<feFlood flood-opacity="0" result="BackgroundImageFix"/>
<feGaussianBlur in="BackgroundImageFix" stdDeviation="2"/>
<feComposite in2="SourceAlpha" operator="in" result="effect1_backgroundBlur_1_26"/>
<feColorMatrix in="SourceAlpha" type="matrix" values="0 0 0 0 0 0 0 0 0 0 0 0 0 0 0 0 0 0 127 0" result="hardAlpha"/>
<feOffset dy="4"/>
<feGaussianBlur stdDeviation="2"/>
<feComposite in2="hardAlpha" operator="out"/>
<feColorMatrix type="matrix" values="0 0 0 0 0 0 0 0 0 0 0 0 0 0 0 0 0 0 0.25 0"/>
<feBlend mode="normal" in2="effect1_backgroundBlur_1_26" result="effect2_dropShadow_1_26"/>
<feBlend mode="normal" in="SourceGraphic" in2="effect2_dropShadow_1_26" result="shape"/>
</filter>
<linearGradient id="paint0_linear_1_26" x1="92" y1="4.00003" x2="92" y2="192" gradientUnits="userSpaceOnUse">
<stop stop-color="#8B7A61"/>
<stop offset="1" stop-color="#D1C8BA"/>
</linearGradient>
<linearGradient id="paint1_linear_1_26" x1="119" y1="34.5004" x2="119" y2="199" gradientUnits="userSpaceOnUse">
<stop offset="0.09" stop-color="#B6AC9D"/>
<stop offset="0.8" stop-color="#8B8277"/>
</linearGradient>
<clipPath id="clip0_1_26">
<rect width="170" height="175" fill="white" transform="matrix(-1 0 0 -1 204 199)"/>
</clipPath>
</defs>
</svg>
